<svg xmlns="http://www.w3.org/2000/svg" xmlns:xlink="http://www.w3.org/1999/xlink" width="83.417" height="28.032" viewBox="0 0 83.417 28.032"><defs><style>.a{fill:#3c5056;}.b{fill:#808a8e;}.c{clip-path:url(#a);}.d{fill:#162a75;}</style><clipPath id="a"><rect width="83.417" height="28.032"/></clipPath></defs><path class="a" d="M0,38.309,2.109,37.2a4.562,4.562,0,0,0,4.342,2.746c1.917,0,3.215-.616,3.215-2.044,0-1.363-.979-2-3.578-2.767C3.044,34.242.6,33.413.6,30.411c0-2.681,2.191-4.451,5.386-4.451a6.206,6.206,0,0,1,5.9,3.386L9.94,30.688a4.357,4.357,0,0,0-3.982-2.3c-1.746,0-2.746.64-2.746,1.787,0,1.469,1.13,1.958,3.7,2.725,2.982.873,5.365,1.852,5.365,4.811,0,2.578-2.191,4.6-5.94,4.6a6.521,6.521,0,0,1-6.341-4m14.222.979c0-2.448,2.088-4.088,7.368-4.684v-.339c0-1.13-.6-1.619-1.852-1.619a6.135,6.135,0,0,0-3.811,1.534L14.65,32.54A8.1,8.1,0,0,1,20.1,30.5c3.023,0,4.067,1.448,4.067,4.088v4.66a7.772,7.772,0,0,0,.319,2.767h-2.64a4.064,4.064,0,0,1-.257-1.448,5.44,5.44,0,0,1-4.174,1.619C15.585,42.182,14.222,41.162,14.222,39.289Zm7.365-.425V36.372c-3.129.425-4.79,1.192-4.79,2.427,0,.894.616,1.363,1.575,1.363A4.535,4.535,0,0,0,21.587,38.864Zm6.878,3.15v-9.22H26.507V30.706h1.958v-1.15c0-1.894.788-3.362,3.663-3.362.49,0,1.363.086,1.554.106v2.023a4.748,4.748,0,0,0-.894-.086c-.935,0-1.7.257-1.7,1.469v1h2.469v2.088H31.088v9.217H28.465Zm6.43-5.642c0-4.3,3.044-5.875,5.386-5.875,2.534,0,4.961,1.51,4.961,6.108v.616H37.515a2.8,2.8,0,0,0,3.023,2.938,4.107,4.107,0,0,0,3.174-1.318L45.095,40.2a6.105,6.105,0,0,1-4.749,2.044C37.515,42.247,34.9,40.522,34.9,36.372Zm7.94-1.106c-.147-1.725-1-2.64-2.575-2.64a2.651,2.651,0,0,0-2.7,2.64Z" transform="translate(0 -18.303)"/><path class="b" d="M164.51,42.726V26.97h1.873V35.1l7.135-8.135h2.256l-5.409,6.005,6.153,9.751h-2.15L169.129,34.4l-2.749,3v5.324h-1.87M177.541,37.1c0-4.088,2.725-5.855,5.088-5.855,2.66,0,4.684,1.873,4.684,5.94v.383h-7.94c.065,2.534,1.534,3.9,3.386,3.9a3.8,3.8,0,0,0,3.386-1.832l1.065.935a5.237,5.237,0,0,1-4.578,2.386C179.968,42.959,177.541,41.021,177.541,37.1Zm8.026-.959c-.147-2-1.106-3.365-2.958-3.365-1.51,0-2.938,1.044-3.191,3.365Zm3.088,10.624.425-1.469a6.459,6.459,0,0,0,1.661.192,2.075,2.075,0,0,0,2.15-1.6l.425-1.109-4.342-11.305h1.938l3.3,9.09h.041l3.3-9.09h1.852L194.595,44c-.767,1.979-1.64,3.044-3.831,3.044A6.816,6.816,0,0,1,188.654,46.77Z" transform="translate(-115.988 -19.015)"/><g class="c"><path class="d" d="M24.941,1.256c0-1-.882-1.168-1.787-1.168H20.408V3.764h1.516V2.4h.121L23.2,3.764h2.13L23.776,2.315c.743-.127,1.165-.516,1.165-1.059m-2.118.484h-.9V.87h.9c.319,0,.549.153.549.439S23.136,1.74,22.824,1.74ZM31.345,0A4.325,4.325,0,0,1,32.8.2v.9A4.712,4.712,0,0,0,31.607.947c-.251,0-1.439.038-1.439,1.009s1.189.979,1.439.979A4.886,4.886,0,0,0,32.8,2.775v.9a4.422,4.422,0,0,1-1.451.2c-.793,0-2.855-.212-2.855-1.923S30.551,0,31.345,0ZM25.974,3.761V.088h1.6V3.764h-1.6ZM15.515.088H19.3V.841H17.19v.687H19.3v.711H17.19v.717H19.3v.805H15.515ZM3.782.088,1.9,3.761H3.443l.348-.723H5.725l.348.723H7.71L5.823.088Zm.407,2.118.569-1.186.569,1.186ZM13.819.088l.888,3.675H13.188l-.5-2.082-.97,2.082h-.962L9.781,1.681l-.5,2.082H7.855L8.743.088h1.628l.864,1.817L12.1.088h1.722Zm43.29,1.779,1.7,1.9H57l-.991-1.177L55.02,3.761H53.212l1.7-1.9L53.383.086h1.835l.79.979L56.8.086h1.835ZM70.384.088h3.784V.841H72.056v.687h2.112v.711H72.056v.717h2.112v.805H70.384Zm9.022,2.578c0,.375-.307,1.212-2.177,1.212a4.008,4.008,0,0,1-2.354-.5l.419-.658a3.815,3.815,0,0,0,1.513.26c.392-.006.755-.077.755-.319s-.242-.31-.829-.354c-.543-.041-1.663-.192-1.669-1.059C75.056.413,75.876,0,77.165,0a4.844,4.844,0,0,1,2.162.434l-.519.646A3.394,3.394,0,0,0,77.6.879c-.4,0-.8.071-.8.345s.419.283.72.319a4.508,4.508,0,0,1,1.277.23A.882.882,0,0,1,79.407,2.666Zm5.1,0c0,.375-.3,1.212-2.174,1.212a4.345,4.345,0,0,1-2.427-.5l.493-.658a3.815,3.815,0,0,0,1.513.26c.389-.006.752-.077.758-.319s-.242-.31-.829-.354c-.543-.041-1.734-.192-1.743-1.059C80.085.413,80.979,0,82.265,0A4.857,4.857,0,0,1,84.43.437l-.522.646a3.369,3.369,0,0,0-1.2-.2c-.4,0-.805.071-.805.345s.422.283.72.319a4.508,4.508,0,0,1,1.277.23A.882.882,0,0,1,84.5,2.666ZM69.3,1.256c0-1-.882-1.168-1.784-1.168H64.765V3.764h1.516V2.4H66.4l1.15,1.366h2.13L68.134,2.315C68.877,2.189,69.3,1.8,69.3,1.256Zm-2.118.484h-.9V.87h.9c.319,0,.549.153.549.439S67.5,1.74,67.181,1.74ZM43.653.088h1.516V3.764H43.426L41.19,1.69V3.764H39.674V.088H41.4l2.256,2.082V.088Zm-8.539,0L33.232,3.764h1.543l.345-.723h1.935l.348.723h1.634L37.158.088Zm.407,2.118.569-1.186.566,1.186ZM48.617.088H52.4V.841H50.292v.687H52.4v.711H50.292v.717H52.4v.805H48.617Zm13.621,0H59.595V3.764h1.516V2.457H62.1a3.045,3.045,0,0,0,1.206-.186,1.038,1.038,0,0,0,.717-1.018C64.028.254,63.143.088,62.238.088Zm-.33,1.587h-.8V.841h.8c.319,0,.546.118.546.4S62.223,1.675,61.907,1.675Z" transform="translate(-1.34 0)"/></g></svg>