<svg xmlns="http://www.w3.org/2000/svg" viewBox="0 0 750 471" preserveAspectRatio="xMidYMid meet">
  <title>Amex</title>
  <defs><style>.amxw{fill:#fff;}.amxb{fill:#0079c1;}</style></defs> <!-- 458 -->
  <rect id="Rectangle-1" fill="#FFFFFF" x="0" y="0" width="750" height="471" rx="40"></rect>
  <g id="amex" transform="translate(146 5) scale(15.6)">
    <path class="amxw" d="M311.938,32.713H282.523V3.3h29.415V32.713Z" transform="translate(-282.523 -3.298)"/>
    <path class="amxb" d="M310.827,24.072h-9.666l-.614-.8v.8h-2.095V22.8a2.563,2.563,0,0,1-.9.158h-.342v1.114H294.1l-.475-.663-.46.663h-5.051V19.2h5.071l.47.654.466-.654h17.813V3.3H282.523V15.245l1.02-2.377h2.031l.524,1.221V12.867h2.481l.327.966.327-.966h10.78v.453a2.423,2.423,0,0,1,1.5-.453h3.348l.524,1.22v-1.22h2.006l.584.906v-.906h2.149V17.74H308.01l-.55-.852v.852h-3l-.282-.723h-.634l-.282.723h-1.8a2.4,2.4,0,0,1-1.446-.42v.42h-3.046l-.614-.8v.8H285.172l-.282-.723h-.634l-.282.723h-1.451V32.713h29.415V23.755a2.008,2.008,0,0,1-1.111.318Z" transform="translate(-282.523 -3.298)"/>
    <path class="amxb" d="M319.04,44.143h-1.793v.778h1.788a1.085,1.085,0,0,0,1.2-1.125.947.947,0,0,0-1.079-.995h-.822a.285.285,0,0,1-.312-.287.282.282,0,0,1,.312-.282h1.5l.342-.778h-1.827a1.084,1.084,0,0,0-1.2,1.09.978.978,0,0,0,1.085,1.03h.817a.29.29,0,0,1,.317.287.286.286,0,0,1-.317.282m-3.175,0h-1.792v.778h1.787a1.085,1.085,0,0,0,1.2-1.125.947.947,0,0,0-1.08-.995h-.822a.285.285,0,0,1-.312-.287.282.282,0,0,1,.312-.282h1.5l.341-.778h-1.827a1.084,1.084,0,0,0-1.2,1.09.978.978,0,0,0,1.085,1.03h.816a.29.29,0,0,1,.317.287.286.286,0,0,1-.317.282m-2.183-1.911v-.778h-2.823v3.467h2.823v-.778H311.74v-.589h1.9V42.8h-1.9v-.564Zm-4.467,0a.361.361,0,0,1,.406.356c0,.2-.138.352-.406.352h-.956v-.708Zm-.956,1.461h.342l1.035,1.228h1.084L309.6,43.658a1.113,1.113,0,0,0-.292-2.2h-1.926v3.467h.881V43.693Zm-2.144-1.065a.372.372,0,0,1-.406.386h-.98v-.782h.98a.377.377,0,0,1,.406.4m-2.268-1.174v3.467h.881V43.791h1.04A1.141,1.141,0,0,0,307,42.623a1.114,1.114,0,0,0-1.2-1.169Zm-1.179,3.467h1.1l-1.4-1.748,1.387-1.719h-1.075l-.817,1.065-.817-1.065h-1.1l1.386,1.738-1.381,1.729h1.074l.817-1.075.822,1.075Zm-2.783-2.689v-.778h-2.823v3.467h2.823v-.778h-1.941v-.589h1.9V42.8h-1.9v-.564Z" transform="translate(-290.735 -24.849)"/>
    <path class="amxb" d="M308.329,30.37h1.07V26.9h-.876v2.149L307.141,26.9h-1.114V30.37h.876V28.141l1.426,2.229Zm-4.947-1.461.48-1.189.485,1.189Zm1.56,1.461h.99l-1.48-3.467h-1.144l-1.486,3.467h.97l.287-.708h1.575l.287.708Zm-3.565,0h.07l.361-.778h-.282a.827.827,0,0,1-.881-.931v-.05a.822.822,0,0,1,.866-.906h.931v-.8h-1a1.574,1.574,0,0,0-1.674,1.709v.05a1.535,1.535,0,0,0,1.609,1.709m-2.917,0h.882V26.9h-.882V30.37Zm-1.644-2.689a.362.362,0,0,1,.406.357c0,.2-.139.352-.406.352h-.955V27.68Zm-.955,1.461h.341l1.035,1.228h1.085L297.2,29.107a1.113,1.113,0,0,0-.292-2.2h-1.926V30.37h.882V29.142Zm-1.377-1.461V26.9h-2.823V30.37h2.823v-.778h-1.941V29h1.9v-.758h-1.9V27.68Zm-5.962,2.689h.767l.917-2.565V30.37h.871V26.9H289.69l-.772,2.209L288.14,26.9h-1.4V30.37h.872V27.8l.911,2.565Zm-4.427-1.461.48-1.189.485,1.189Zm1.56,1.461h.99l-1.48-3.467H284.02l-1.485,3.467h.97l.287-.708h1.574l.287.708Z" transform="translate(-282.53 -16.63)"/>
  </g>
</svg>
