<svg xmlns="http://www.w3.org/2000/svg" width="72.56" height="25.783" viewBox="0 0 72.56 25.783"><defs><style>.a{fill:#c00;}.a,.b{fill-rule:evenodd;}.b{fill:#f90;}</style></defs><path class="a" d="M170.15,22.967a1.368,1.368,0,1,1,1.367,1.427,1.38,1.38,0,0,1-1.367-1.427Zm1.367,1.117a1.062,1.062,0,0,0,1.032-1.1,1.078,1.078,0,0,0-1.032-1.1,1.1,1.1,0,0,0,0,2.193Zm-.189-.476h-.29V22.346h.516a.539.539,0,0,1,.31.06.343.343,0,0,1,.145.31.32.32,0,0,1-.206.31l.226.56h-.31l-.185-.5h-.206v.516Zm0-.7h.165a.413.413,0,0,0,.165-.02.165.165,0,0,0,.06-.145.151.151,0,0,0-.06-.125.465.465,0,0,0-.165-.02h-.145l-.02.31Z" transform="translate(-101.56 -12.857)"/><path class="a" d="M110.351.58l-.371,2.439a4.12,4.12,0,0,0-2.048-.6c-1.7,0-2.894,1.737-2.894,4.2,0,1.7.806,2.729,2.128,2.729a4.293,4.293,0,0,0,1.943-.58l-.391,2.564a6.576,6.576,0,0,1-2.028.331c-2.459,0-3.991-1.862-3.991-4.837C102.7,2.814,104.808,0,107.848,0a3.728,3.728,0,0,1,1.032.125l.951.25c.25.1.31.121.52.206Z" transform="translate(-61.3)"/><path class="a" d="M94.888,5.56a.784.784,0,0,0-.226-.02c-.746,0-1.177.391-1.883,1.487l.206-1.387H90.917L89.51,14.759H91.8c.826-5.583,1.032-6.534,2.128-6.534H94.1a9.077,9.077,0,0,1,.867-2.648l-.077-.016Z" transform="translate(-53.427 -3.307)"/><path class="a" d="M63.861,12.764a5.061,5.061,0,0,1-1.633.31c-1.157,0-1.8-.7-1.8-2.007a6.14,6.14,0,0,1,.06-.826l.145-.891.1-.726L61.732,2.4h2.274l-.27,1.342h1.177l-.331,2.213H63.425l-.6,3.805c-.02.165-.04.29-.04.371,0,.476.25.681.786.681a1.669,1.669,0,0,0,.621-.085l-.331,2.036Z" transform="translate(-36.07 -1.433)"/><path class="a" d="M45.327,8.37a2.662,2.662,0,0,0,1.737,2.544c.911.456,1.076.6,1.076,1.012,0,.56-.415.826-1.3.826a5.806,5.806,0,0,1-2.048-.371l-.31,2.108.1.02.415.085c.145.02.331.06.6.081.536.04.972.085,1.262.085,2.4,0,3.515-.971,3.515-3.039a2.5,2.5,0,0,0-1.612-2.544c-.951-.456-1.056-.56-1.056-.992,0-.5.371-.746,1.117-.746a12.137,12.137,0,0,1,1.633.145l.331-2.108a13.977,13.977,0,0,0-2.007-.185c-2.588,0-3.475,1.383-3.455,3.08Z" transform="translate(-26.55 -3.158)"/><path class="a" d="M156.586,11.741h-2.173l.1-.891a2.659,2.659,0,0,1-2.108,1.012c-1.677,0-2.769-1.508-2.769-3.785,0-3.039,1.7-5.6,3.721-5.6a2.606,2.606,0,0,1,2.193,1.242l.5-3.2H158.3l-1.717,11.231Zm-3.37-2.132c1.076,0,1.818-1.262,1.818-3.08,0-1.157-.435-1.8-1.221-1.8-1.032,0-1.778,1.282-1.778,3.06,0,1.2.4,1.818,1.181,1.818Z" transform="translate(-89.318 -0.304)"/><path class="a" d="M77.654,14.343a7.551,7.551,0,0,1-2.358.371c-2.544,0-3.886-1.407-3.886-4.1,0-3.144,1.7-5.438,3.991-5.438a3,3,0,0,1,3.08,3.33,10.094,10.094,0,0,1-.29,2.253H73.643a1.731,1.731,0,0,0-.02.29c0,1.076.681,1.612,2.007,1.612a5.336,5.336,0,0,0,2.378-.58l-.355,2.257ZM76.372,8.9a4.111,4.111,0,0,0,.02-.456,1.029,1.029,0,0,0-1.076-1.177c-.726,0-1.242.58-1.447,1.633Z" transform="translate(-42.624 -3.092)"/><path class="a" d="M10.239,11.77H7.965l1.3-8.623L6.333,11.77H4.781L4.6,3.208,3.208,11.77H1.08L2.858.56H6.143l.085,6.95L8.461.56h3.555Z" transform="translate(-0.645 -0.334)"/><path class="a" d="M31.472,10.5c-.25-.02-.351-.04-.516-.04-1.3,0-1.943.476-1.943,1.387a.834.834,0,0,0,.826.931c.911,0,1.592-.931,1.633-2.278Zm1.657,4.055h-1.9l.04-.951a2.758,2.758,0,0,1-2.4,1.1A2.2,2.2,0,0,1,26.78,12.22c0-2.233,1.487-3.515,4.011-3.515a7.981,7.981,0,0,1,.931.06,2.994,2.994,0,0,0,.085-.6c0-.6-.391-.826-1.467-.826a6.818,6.818,0,0,0-1.9.27l-.29.1-.206.06.31-2.048a8.824,8.824,0,0,1,2.729-.5c1.963,0,3,.931,3,2.669a12.225,12.225,0,0,1-.185,1.818l-.456,3.245-.085.58-.06.456-.04.331-.024.23Z" transform="translate(-15.985 -3.122)"/><path class="a" d="M124.522,10.473c-.226-.02-.351-.04-.516-.04-1.3,0-1.963.476-1.963,1.387a.833.833,0,0,0,.826.931c.931,0,1.612-.931,1.653-2.278Zm1.657,4.055h-1.9l.04-.951a2.758,2.758,0,0,1-2.4,1.1,2.2,2.2,0,0,1-2.088-2.483c0-2.233,1.487-3.515,4.011-3.515a8.262,8.262,0,0,1,.931.06,2.916,2.916,0,0,0,.081-.6c0-.6-.391-.826-1.467-.826a6.818,6.818,0,0,0-1.9.27l-.331.085-.206.06.31-2.048a8.824,8.824,0,0,1,2.729-.5c1.963,0,3,.931,3,2.669a12.222,12.222,0,0,1-.185,1.818l-.476,3.225-.06.58-.06.456-.04.31.016.29Z" transform="translate(-71.525 -3.092)"/><path class="a" d="M143.468,5.56a.784.784,0,0,0-.226-.02c-.746,0-1.177.391-1.883,1.487l.206-1.387H139.5l-1.407,9.118h2.294c.826-5.583,1.032-6.534,2.128-6.534h.165a9.72,9.72,0,0,1,.867-2.648l-.077-.016Z" transform="translate(-82.424 -3.307)"/><path class="b" d="M120.127,44.335c0,2.068-.641,3.289-1.653,3.289-.746.02-1.177-.806-1.177-2.028,0-1.447.661-3.1,1.7-3.1.843,0,1.133.887,1.133,1.838Zm2.253.02c0-2.294-1.137-4.1-3.269-4.1-2.459,0-4.051,2.173-4.051,5.377,0,2.294.951,4.176,3.265,4.176,2.338,0,4.055-1.653,4.055-5.458Z" transform="translate(-68.678 -24.031)"/><path class="b" d="M106.225,35.455l-.351,2.439a3.659,3.659,0,0,0-1.9-.6c-1.592,0-2.709,1.737-2.709,4.2,0,1.7.746,2.729,1.983,2.729a3.742,3.742,0,0,0,1.818-.58l-.371,2.564a5.792,5.792,0,0,1-1.9.331c-2.294,0-3.741-1.862-3.741-4.837,0-4.011,1.983-6.825,4.817-6.825a3.165,3.165,0,0,1,.951.125l.867.25a1.907,1.907,0,0,1,.54.21Z" transform="translate(-59.122 -20.814)"/><path class="b" d="M74.407,40.39a.784.784,0,0,0-.226-.02c-.7,0-1.1.391-1.758,1.487l.206-1.387H70.706L69.4,49.593h2.128c.766-5.583.972-6.534,1.983-6.534a.607.607,0,0,1,.165.02,9.806,9.806,0,0,1,.806-2.648l-.077-.04Z" transform="translate(-41.424 -24.096)"/><path class="b" d="M141.36,46.44h-2.028l.1-.891a2.436,2.436,0,0,1-1.983,1.012c-1.552,0-2.584-1.508-2.584-3.785,0-3.039,1.592-5.6,3.475-5.6a2.368,2.368,0,0,1,2.048,1.262l.476-3.2h2.108L141.36,46.44ZM138.2,44.292c1.012,0,1.7-1.262,1.7-3.08,0-1.157-.391-1.778-1.137-1.778-.972,0-1.653,1.262-1.653,3.06,0,1.2.367,1.8,1.092,1.8Z" transform="translate(-80.502 -21.028)"/><path class="b" d="M23.553,49.373a6.561,6.561,0,0,1-2.193.371c-2.378,0-3.62-1.407-3.62-4.1,0-3.124,1.592-5.438,3.721-5.438,1.758,0,2.874,1.282,2.874,3.33a11.222,11.222,0,0,1-.27,2.253H19.832a1.731,1.731,0,0,0-.02.29c0,1.056.641,1.592,1.883,1.592a4.633,4.633,0,0,0,2.213-.58l-.355,2.278Zm-1.2-5.438c0-.185.02-.351.02-.456,0-.746-.371-1.177-1.012-1.177-.681,0-1.157.58-1.367,1.633Z" transform="translate(-10.589 -24.001)"/><path class="b" d="M86.523,49.373a6.561,6.561,0,0,1-2.193.371c-2.4,0-3.64-1.407-3.64-4.1,0-3.124,1.592-5.438,3.721-5.438,1.758,0,2.894,1.282,2.894,3.33a11.222,11.222,0,0,1-.27,2.253H82.8a1.731,1.731,0,0,0-.02.29c0,1.056.641,1.592,1.883,1.592a4.633,4.633,0,0,0,2.213-.58l-.351,2.278Zm-1.2-5.438a4.11,4.11,0,0,0,.02-.456c0-.746-.371-1.177-1.012-1.177-.681,0-1.157.58-1.367,1.633Z" transform="translate(-48.163 -24.001)"/><path class="b" d="M160.383,49.373a6.736,6.736,0,0,1-2.193.371c-2.378,0-3.64-1.407-3.64-4.1,0-3.124,1.592-5.438,3.741-5.438,1.758,0,2.874,1.282,2.874,3.33a10.935,10.935,0,0,1-.27,2.253h-4.241a1.732,1.732,0,0,0-.02.29c0,1.056.641,1.592,1.883,1.592a4.633,4.633,0,0,0,2.213-.58l-.347,2.278Zm-1.2-5.438c0-.185.02-.351.02-.456,0-.746-.371-1.177-1.012-1.177-.681,0-1.157.58-1.367,1.633Z" transform="translate(-92.249 -24.001)"/><path class="b" d="M6.639,37.337a3.025,3.025,0,0,0-1.778-.516c-.867,0-1.552.185-1.552,1.1,0,1.612,3.144,1.012,3.144,4.487,0,3.164-2.068,3.991-3.951,3.991a6.383,6.383,0,0,1-2.5-.6l.516-2.318a3.3,3.3,0,0,0,2.008.661c.681,0,1.717-.185,1.717-1.367,0-1.842-3.144-1.157-3.144-4.386,0-2.959,1.842-3.826,3.62-3.826a4.745,4.745,0,0,1,2.483.516l-.56,2.261Z" transform="translate(0 -20.629)"/><path class="b" d="M40.362,49.438a4.392,4.392,0,0,1-1.9.351c-1.862,0-3.019-1.862-3.019-4.136,0-2.979,1.677-5.333,4.136-5.333a4.485,4.485,0,0,1,2.007.6l-.476,2.173a2.538,2.538,0,0,0-1.427-.5c-1.137,0-1.963,1.056-1.963,2.914,0,1.076.6,1.963,1.532,1.963a2.668,2.668,0,0,0,1.427-.391l-.314,2.354Z" transform="translate(-21.154 -24.067)"/><path class="b" d="M57.629,47.366c-.1.786-.206,1.552-.27,2.358H55.311l.165-1.467h-.02a2.871,2.871,0,0,1-2.483,1.677c-1.282,0-1.983-1.367-1.983-3.124a12.472,12.472,0,0,1,.165-1.9l.58-4.217h2.294l-.621,4.241a10.424,10.424,0,0,0-.145,1.387c0,.536.25,1.076.867,1.032.931,0,1.487-1.137,1.653-2.483l.641-4.176h2.213l-1.008,6.676Z" transform="translate(-30.435 -24.287)"/><path class="b" d="M173.051,60.112H172.7V58.6h-.5V58.27h1.346V58.6h-.5Z" transform="translate(-102.784 -34.781)"/><path class="b" d="M177.612,60.112h-.331V58.58h0l-.31,1.532h-.331l-.31-1.532h0v1.532H176V58.27h.516l.29,1.447h.02l.29-1.447h.5Z" transform="translate(-105.052 -34.781)"/></svg>