<svg xmlns="http://www.w3.org/2000/svg" width="80" height="23.411" viewBox="0 0 80 23.411"><defs><style>.a{fill:#257ece;}.b{fill:#58595b;}</style></defs><path class="a" d="M2149.234,5291.129h-3.592v6.031h3.592c3.544,0,3.58-6.031,0-6.031" transform="translate(-2138.181 -5285.204)"/><path class="a" d="M2153.086,5282.271h-18.023a.591.591,0,0,0-.575.6V5300.6l4.011,2.115v-14.5h-1.91v-3.354h9.474c7.537,0,7.456,12.7,0,12.7h-4.214v6.938l2.251,1.185,9.557-5.077v-17.734a.588.588,0,0,0-.571-.6" transform="translate(-2134.488 -5282.271)"/><path class="a" d="M2169.992,5289.3a2.358,2.358,0,0,1,2.353-2.357h1.614a6.915,6.915,0,0,1,2.941.452,3.618,3.618,0,0,1,1.854,3.36,3.561,3.561,0,0,1-1.61,3.2,6,6,0,0,1-3.17.729h-1.646v4.382h-2.336Zm2.336,3.307h1.768c1.14,0,2.269-.451,2.269-1.8,0-1.577-.865-1.8-2.355-1.8h-1.385c-.3,0-.3.278-.3.574Z" transform="translate(-2146.244 -5283.816)"/><path class="a" d="M2188.354,5299.644a3.4,3.4,0,0,1-2.443,1.041,3.016,3.016,0,0,1-3.184-2.974,2.9,2.9,0,0,1,2.615-2.946l2.977-.433c-.069-.885-1.456-1.2-2.059-1.2a5.894,5.894,0,0,0-2.405.539h-.245v-2.009a9.814,9.814,0,0,1,2.686-.451c2.077,0,4.1.78,4.172,3.066v6.2h-2.114Zm-2.042-.9a3.91,3.91,0,0,0,1.957-.621v-2.042c-.742.137-1.506.2-2.269.361a1.124,1.124,0,0,0-1.056,1.142c0,.85.64,1.16,1.367,1.16" transform="translate(-2150.46 -5285.231)"/><path class="a" d="M2201.762,5291.5h2.043l-4,11.031c-.675,1.749-1.888,2.2-3.966,2.2h-.4v-1.9c1.659.016,2.214,0,2.648-1.2l.415-1.146-3.948-8.985h2.407l2.579,6.094Z" transform="translate(-2154.378 -5285.326)"/><path class="b" d="M2205.342,5289.057v-2.114h9.007v2.114h-3.361v10.008h-2.337v-10.008Z" transform="translate(-2157.948 -5283.819)"/><path class="b" d="M2223.294,5299.644a3.4,3.4,0,0,1-2.44,1.041,3.014,3.014,0,0,1-3.186-2.974,2.9,2.9,0,0,1,2.614-2.946l2.977-.433c-.069-.885-1.455-1.2-2.06-1.2a5.9,5.9,0,0,0-2.406.539h-.246v-2.009a9.831,9.831,0,0,1,2.686-.451c2.078,0,4.1.78,4.175,3.066v6.2h-2.114Zm-2.043-.9a3.9,3.9,0,0,0,1.954-.621v-2.042c-.741.137-1.505.2-2.266.361a1.124,1.124,0,0,0-1.056,1.142c0,.85.642,1.16,1.369,1.16" transform="translate(-2162.029 -5285.231)"/><path class="b" d="M2233.746,5298.973a2.187,2.187,0,0,1-2.179-2.2V5286.09h2.2v3.877a3.078,3.078,0,0,1,1.749-.449,4.121,4.121,0,0,1,3.173,1.4,5.192,5.192,0,0,1,.948,3.184,5.934,5.934,0,0,1-.672,2.925,4.172,4.172,0,0,1-3.739,1.943Zm.539-1.959h.729a2.425,2.425,0,0,0,1.728-.551,3.524,3.524,0,0,0,.625-2.358,3.393,3.393,0,0,0-.4-1.8,1.906,1.906,0,0,0-1.66-.83,6.627,6.627,0,0,0-1.544.224v4.813a.518.518,0,0,0,.522.5" transform="translate(-2166.632 -5283.534)"/><path class="b" d="M2244.232,5300.216v-1.937h.275a7.654,7.654,0,0,0,2.549.486c.621-.018,1.661-.124,1.661-.969,0-.467-.676-.695-1.09-.851a22.093,22.093,0,0,1-2.2-.865,2.525,2.525,0,0,1-1.282-2.267c0-1.732,1.613-2.616,3.119-2.6a9.465,9.465,0,0,1,2.786.483v1.855h-.292a6.818,6.818,0,0,0-2.217-.417c-.347,0-1.317.069-1.317.59,0,.276.5.556.884.678a20.7,20.7,0,0,1,2.32.881,2.539,2.539,0,0,1,1.369,2.406c0,2.079-1.922,2.981-3.83,2.981a9,9,0,0,1-2.733-.455" transform="translate(-2170.795 -5285.232)"/></svg>