<svg xmlns="http://www.w3.org/2000/svg" width="67.271" height="25.783" viewBox="0 0 67.271 25.783"><defs><style>.a{fill:#006a71;}.b{fill:#29b44b;}</style></defs><path class="a" d="M0,1.761l3.354-.185,2.518-.141Q8.238,1.3,10.6,1.171c.883-.051,1.769-.094,2.652-.145C15.134.921,17.015.809,18.893.7c.962-.054,1.925-.1,2.887-.152Q23.961.428,26.139.3c.951-.054,1.9-.1,2.854-.152.85-.047,1.7-.083,2.551-.141a.424.424,0,0,1,.478.3q1.8,4.01,3.611,8.014c.185.409.365.818.557,1.219a.374.374,0,0,1-.054.456c-1.114,1.346-2.171,2.735-3.151,4.179a1.027,1.027,0,0,1-.127.112,7.988,7.988,0,0,1-.025-.915c0-.289,0-.582,0-.872V7.987h-3.9c-.007,1.5,0,2.992,0,4.483v4.475l-.083.033c-.166-.137-.333-.282-.5-.416-.318-.246-.651-.47-.955-.731a1.354,1.354,0,0,1-.213-.423l-.315.1a7.242,7.242,0,0,1-2.775.416,3.7,3.7,0,0,1-1.6-.452,2.63,2.63,0,0,1-1.342-2.655,2.637,2.637,0,0,1,2.59-2.543,5.606,5.606,0,0,1,2.938.546c.1.047.2.083.336.141.011-.134.029-.228.029-.326,0-.669,0-1.342,0-2.012,0-.329-.007-.365-.333-.441a12.069,12.069,0,0,0-1.744-.34,10.176,10.176,0,0,0-3.958.373,5.643,5.643,0,0,0-3.271,2.424,4.363,4.363,0,0,0-.637,2.062,5.3,5.3,0,0,0,.405,2.525,4.866,4.866,0,0,0,2.547,2.42A8.29,8.29,0,0,0,23,18.341c.449.025.894.04,1.342.043.174,0,.242.065.3.235a2.781,2.781,0,0,0,.344.716c.26.373.561.72.879,1.118-.17.065-.3.119-.434.163q-4.217,1.324-8.437,2.641-3.8,1.188-7.6,2.381c-.127.04-.246.1-.369.148h-.2a1.692,1.692,0,0,0-.062-.192q-2.046-5.552-4.1-11.1Q2.435,8.466.21,2.452C.148,2.285.072,2.123,0,1.96Zm6.14,6.19v10.22h3.871V15.143c.17-.011.3-.022.431-.029.546-.025,1.1-.025,1.643-.083a6.177,6.177,0,0,0,2.312-.662A3.152,3.152,0,0,0,16.2,11.1,2.751,2.751,0,0,0,14.88,8.917a5.682,5.682,0,0,0-1.769-.705,12.35,12.35,0,0,0-2.6-.253c-1.321-.018-2.645,0-3.965,0C6.418,7.951,6.3,7.951,6.14,7.951Zm27.105-3.22a2.009,2.009,0,0,0-1.4-2.066,2.745,2.745,0,0,0-1.972.014,2.009,2.009,0,0,0-1.234,1.2,2.585,2.585,0,0,0-.116,1.125,1.885,1.885,0,0,0,.81,1.44,2.658,2.658,0,0,0,2.145.409A2.059,2.059,0,0,0,33.245,4.731Z" transform="translate(0 -0.004)"/><path class="a" d="M173.354,17a6.786,6.786,0,0,1-.26.651,2.61,2.61,0,0,1-1.751,1.357,6.505,6.505,0,0,1-2.963.029,2.561,2.561,0,0,1-2.1-2.171c-.029-.127-.036-.26-.061-.423.127-.018.221-.04.315-.047.582-.033,1.165-.051,1.744-.1.221-.018.289.058.344.253a1.247,1.247,0,0,0,1.487,1.031,1.334,1.334,0,0,0,.532-.185.659.659,0,0,0,0-1.143,1.621,1.621,0,0,0-.456-.206c-.387-.112-.785-.185-1.169-.318a8.83,8.83,0,0,1-1.458-.586,2.043,2.043,0,0,1-.112-3.513,3.028,3.028,0,0,1,1.378-.5,6.5,6.5,0,0,1,2.6.134,2.247,2.247,0,0,1,1.635,1.784,2.953,2.953,0,0,1,.036.369c-.322.029-.619.065-.915.087-.369.025-.738.036-1.107.065a.291.291,0,0,1-.351-.221,1.1,1.1,0,0,0-1.407-.745.832.832,0,0,0-.373.21.4.4,0,0,0,.1.695,4.953,4.953,0,0,0,.792.26c.622.181,1.255.336,1.874.535a2.332,2.332,0,0,1,1.259.908,5.744,5.744,0,0,1,.373.781C173.354,16.333,173.354,16.669,173.354,17Z" transform="translate(-106.084 -7.062)"/><path class="b" d="M75.532,35.534a2.59,2.59,0,0,1-2.163-1.006c-.705-.9-1.425-1.784-2.138-2.674-.232-.289-.456-.582-.691-.865a.748.748,0,0,1-.08-.93,3.377,3.377,0,0,1,1.15-1.154c.206-.137.362-.1.575.083.695.6,1.386,1.2,2.08,1.805.3.257.59.514.89.767.282.239.387.217.575-.1.561-.941,1.107-1.892,1.686-2.826a51.038,51.038,0,0,1,4.457-6.129c.738-.872,1.494-1.726,2.261-2.572a1.643,1.643,0,0,1,.572-.391,6.314,6.314,0,0,1,2.663-.452c.159,0,.318.018.38.206s-.047.3-.166.405c-.456.431-.923.85-1.368,1.292a23.432,23.432,0,0,0-2.84,3.564c-1.845,2.728-3.513,5.561-5.145,8.415-.3.525-.626,1.038-.883,1.581a1.452,1.452,0,0,1-1.114.865C75.959,35.476,75.68,35.508,75.532,35.534Z" transform="translate(-44.889 -12.186)"/><path class="a" d="M122.072,19.258c-.08-.26-.094-7.37-.011-7.757a2.136,2.136,0,0,1,.275-.029c1.2,0,2.4-.007,3.6,0a3.342,3.342,0,0,1,1.827.47,3.122,3.122,0,0,1,1.353,1.968,6.238,6.238,0,0,1,.047,2.854,3.017,3.017,0,0,1-2.967,2.5c-1.339.072-2.688.018-4.03.022A.293.293,0,0,1,122.072,19.258Zm2.449-5.988v4.186c.387,0,.742.022,1.1,0a1.073,1.073,0,0,0,1.067-.9,3.4,3.4,0,0,0,.112-.894,9.007,9.007,0,0,0-.119-1.36,1.118,1.118,0,0,0-.991-.959C125.317,13.289,124.937,13.3,124.521,13.271Z" transform="translate(-77.865 -7.321)"/><path class="a" d="M151.261,13.41c-.289.025-.59.058-.886.076-.358.025-.716.033-1.074.065a.323.323,0,0,1-.391-.257,1.132,1.132,0,0,0-1.53-.666.523.523,0,0,0-.373.47.447.447,0,0,0,.362.467c.318.1.648.17.973.26.5.137,1,.257,1.483.431a2.507,2.507,0,0,1,1.462,1.114,2.474,2.474,0,0,1-.771,3.162,3.239,3.239,0,0,1-1.458.564,6.949,6.949,0,0,1-2.731-.13,2.474,2.474,0,0,1-1.885-2.551c.412-.033.8-.065,1.187-.09.3-.022.6-.022.9-.047a.2.2,0,0,1,.257.192c.007.043.018.087.029.13a1.294,1.294,0,0,0,1.7.941.788.788,0,0,0,.637-.658.722.722,0,0,0-.514-.745,7.462,7.462,0,0,0-.93-.286,7.676,7.676,0,0,1-1.838-.633,2.041,2.041,0,0,1-1-2.67,2.171,2.171,0,0,1,1.447-1.259,5.693,5.693,0,0,1,3.473.033,2.217,2.217,0,0,1,1.5,1.968C151.3,13.312,151.279,13.345,151.261,13.41Z" transform="translate(-92.181 -7.044)"/><path class="a" d="M139.469,39.213V37.759l-.069-.011c-.058.206-.123.412-.177.619-.043.163-.076.326-.116.488-.094.365-.13.383-.507.362a.264.264,0,0,1-.279-.232c-.069-.293-.145-.586-.217-.879a1.165,1.165,0,0,0-.174-.405v1.48h-.608a11.97,11.97,0,0,1-.014-2.478c.293,0,.6-.014.908.011.065.007.145.152.174.246a8.17,8.17,0,0,0,.34,1.017c.083-.322.17-.64.253-.962s.083-.322.4-.326c.181,0,.358,0,.539,0a.184.184,0,0,1,.206.206V39a.178.178,0,0,1-.206.2C139.788,39.213,139.654,39.213,139.469,39.213Z" transform="translate(-87.596 -23.416)"/><path class="a" d="M171.976,38.066c0,.289-.007.579,0,.868.007.2-.069.289-.275.279-.145-.007-.286,0-.459,0-.014-.127-.04-.221-.04-.315,0-.626,0-1.248,0-1.874,0-.318.018-.311.347-.34a.619.619,0,0,1,.655.344c.174.3.387.568.582.854.025,0,.047-.011.072-.014v-1.14h.781c.011.807,0,1.614,0,2.482a6.123,6.123,0,0,1-.687-.007.433.433,0,0,1-.224-.177c-.185-.25-.358-.514-.539-.767-.051-.072-.1-.137-.159-.206A.214.214,0,0,0,171.976,38.066Z" transform="translate(-109.264 -23.411)"/><path class="a" d="M130.334,39.2a1.175,1.175,0,0,1-1.324-1.321,1.319,1.319,0,1,1,1.324,1.321ZM129.81,37.9a2.37,2.37,0,0,0,.09.409.423.423,0,0,0,.427.268.4.4,0,0,0,.409-.239,1.06,1.06,0,0,0,.011-.847.438.438,0,0,0-.463-.268.411.411,0,0,0-.4.3A2.668,2.668,0,0,0,129.81,37.9Z" transform="translate(-82.336 -23.347)"/><path class="a" d="M165.762,39.2a6.346,6.346,0,0,1-.705-.011c-.072-.007-.163-.112-.192-.192a.273.273,0,0,0-.3-.2,3.7,3.7,0,0,0-.4.007.318.318,0,0,0-.224.148c-.065.221-.21.264-.409.25-.152-.011-.3-.014-.5-.025.043-.148.069-.253.1-.355.235-.626.478-1.252.709-1.881a.341.341,0,0,1,.362-.268c.619-.011.619-.018.836.554.2.521.394,1.046.59,1.567C165.678,38.911,165.707,39.027,165.762,39.2Zm-1.342-1.624h-.072c-.054.2-.112.394-.174.611h.434C164.539,37.956,164.477,37.768,164.419,37.576Z" transform="translate(-104.048 -23.406)"/><path class="a" d="M123.879,37.36c-.159.043-.286.076-.416.112a.311.311,0,0,1-.383-.112.4.4,0,0,0-.478-.145.434.434,0,0,0-.311.431,3.78,3.78,0,0,0,.011.535.387.387,0,0,0,.34.362.406.406,0,0,0,.456-.206c.043-.076.083-.152.145-.264.217.065.423.13.662.2a.938.938,0,0,1-.441.731,1.6,1.6,0,0,1-1.538-.04,1.514,1.514,0,0,1-.264-1.943,1.435,1.435,0,0,1,1.794-.293A.928.928,0,0,1,123.879,37.36Z" transform="translate(-77.494 -23.321)"/><path class="a" d="M147.253,39.176a.747.747,0,0,1-.127.043c-.662.072-.677.062-.677-.6V36.77a1.032,1.032,0,0,1,.217-.058c.405,0,.807-.011,1.212.007a.714.714,0,0,1,.745.705.756.756,0,0,1-.63.857c-.217.043-.441.051-.687.08Q147.275,38.785,147.253,39.176Zm0-1.87c.043.156.04.333.123.4s.25,0,.362-.054c.04-.018.062-.174.033-.235C147.68,37.229,147.506,37.255,147.253,37.305Z" transform="translate(-93.466 -23.429)"/><path class="a" d="M100.99,42.278q.852-1.362,1.7-2.728c.033,0,.062,0,.094.007.289.64.582,1.281.894,1.964-.9.282-1.769.554-2.63.825C101.026,42.325,101.008,42.3,100.99,42.278Z" transform="translate(-64.453 -25.243)"/><path class="a" d="M180.343,37.411v1.006c0,.166,0,.336,0,.5-.007.3-.022.311-.333.318-.141,0-.286,0-.481,0V37.415c-.239-.011-.427-.014-.611-.029-.239-.018-.188-.21-.192-.355s-.022-.311.2-.311h2.149a1.156,1.156,0,0,1,.058.217c.029.423,0,.449-.431.459C180.6,37.393,180.5,37.4,180.343,37.411Z" transform="translate(-114.064 -23.437)"/><path class="a" d="M153.474,36.76h.731c.069.6,0,1.2.047,1.845h1.161v.608a.854.854,0,0,1-.185.043c-.514,0-1.031,0-1.545,0-.152,0-.264-.033-.264-.217,0-.713,0-1.429.007-2.142A.53.53,0,0,1,153.474,36.76Z" transform="translate(-97.915 -23.462)"/><path class="a" d="M160.756,39.2h-.792c-.011-.127-.029-.235-.029-.34,0-.6,0-1.2,0-1.809,0-.344.011-.351.365-.355h.459C160.756,37.547,160.756,38.357,160.756,39.2Z" transform="translate(-102.071 -23.424)"/><path class="a" d="M27.5,29.431c0-.38.007-.76,0-1.136,0-.2.076-.279.275-.275a3.922,3.922,0,0,1,1.389.17,1.3,1.3,0,0,1,.7,1.917,1.46,1.46,0,0,1-1.085.655,6.138,6.138,0,0,1-.966.076c-.293.007-.308-.014-.311-.3C27.5,30.165,27.5,29.8,27.5,29.431Z" transform="translate(-17.551 -17.884)"/></svg>