<?xml version="1.0" encoding="UTF-8"?>
<svg width="150px" height="45px" viewBox="0 0 150 45" version="1.1" xmlns="http://www.w3.org/2000/svg" xmlns:xlink="http://www.w3.org/1999/xlink">
    <title>wbk-logo@2x</title>
    <g id="Page-1" stroke="none" stroke-width="1" fill="none" fill-rule="evenodd">
        <g id="wbk-logo@2x" fill="#FF2C79" fill-rule="nonzero">
            <path d="M0,0.69999889 C0,0.313401282 0.313401627,0 0.7000004,0 L9.34660869,0 C9.59629919,0 9.82708965,0.133001565 9.9522799,0.349041246 L16.6187732,11.8537536 C16.8885938,12.3193531 17.5609851,12.3190831 17.8304157,11.8532436 L22.8940958,3.09775246 C23.1636163,2.63168193 23.8364577,2.63168193 24.1060082,3.09775246 L29.1655783,11.8461636 C29.4359089,12.3135931 30.1113602,12.3119131 30.3792608,11.8431636 L36.9483739,0.352575243 C37.0731741,0.134543863 37.3050746,0 37.5561751,0 L46.2999926,0 C46.6866934,0 47.000194,0.313401282 47.000194,0.69999889 L47.000194,44.2998007 C47.000194,44.6865003 46.6866934,45 46.2999926,45 L28.8068676,45 C28.5553471,45 28.3231766,44.8650001 28.1986464,44.6466003 L24.1051682,37.4619076 C23.8373277,36.9918081 23.1601663,36.9903081 22.8902858,37.4592076 L18.7519575,44.6490003 C18.6270373,44.8662001 18.3956768,45 18.1452663,45 L0.7000004,45 C0.313401627,45 0,44.6865003 0,44.2998007 L0,0.69999889 Z M51.500203,0.69999889 C51.500203,0.313401282 51.8137036,0 52.2004044,0 L89.8162796,0 C89.9368799,0 90.0556801,0.0311645684 90.1606803,0.090472408 L98.1445963,4.59907093 C98.3644967,4.72321081 98.500397,4.95613057 98.500397,5.20861032 L98.500397,16.0956893 C98.500397,16.345859 98.3668967,16.5770088 98.1502963,16.7020187 L89.1514783,21.8936334 C88.6843774,22.1630331 88.6843774,22.8369224 89.1514783,23.1062922 L98.1502963,28.2979369 C98.3668967,28.4229468 98.500397,28.6540966 98.500397,28.9042663 L98.500397,39.7914052 C98.500397,40.043705 98.3644967,40.2768047 98.1445963,40.4010046 L90.1606803,44.9094 C90.0556801,44.9688 89.9368799,45 89.8162796,45 L52.2004044,45 C51.8137036,45 51.500203,44.6865003 51.500203,44.2998007 L51.500203,0.69999889 Z M103.700007,0 C103.313307,0 103.000106,0.313401282 103.000106,0.69999889 L103.000106,44.2998007 C103.000106,44.6865003 103.313307,45 103.700007,45 L121.146542,45 C121.396143,45 121.627143,44.8668001 121.752244,44.6508003 L125.894352,37.4964075 C126.163752,37.030508 126.836354,37.030508 127.105754,37.4964075 L131.247862,44.6508003 C131.372963,44.8668001 131.603963,45 131.853564,45 L149.300099,45 C149.686799,45 150,44.6865003 150,44.2998007 L150,30.3540148 C150,30.1041151 149.8668,29.8729353 149.650199,29.7478654 L138.149676,23.1061422 C137.683175,22.8366825 137.683175,22.1632431 138.149676,21.8937834 L149.650199,15.2520602 C149.8668,15.1270203 150,14.8959605 150,14.6458807 L150,0.69999889 C150,0.313401282 149.686799,0 149.300099,0 L131.853564,0 C131.603963,0 131.372963,0.133102365 131.247862,0.349275246 L127.105754,7.50360798 C126.836354,7.96929749 126.163752,7.96929749 125.894352,7.50360798 L121.752244,0.349275246 C121.627143,0.133102365 121.396143,0 121.146542,0 L103.700007,0 Z" id="Shape"></path>
        </g>
    </g>
</svg>