<?xml version="1.0" encoding="utf-8"?>
<!-- Generator: Adobe Illustrator 28.0.0, SVG Export Plug-In . SVG Version: 6.00 Build 0)  -->
<svg version="1.1" id="Layer_1" xmlns="http://www.w3.org/2000/svg" xmlns:xlink="http://www.w3.org/1999/xlink" x="0px" y="0px"
	 viewBox="0 0 68.8 83.5" style="enable-background:new 0 0 68.8 83.5;" xml:space="preserve">
<path style="fill:#FFFFFF;" d="M15.1,12c-5.2,3.5-7.8,8.6-7.8,15.3c0,2.8,0.5,5.5,1.6,8c0.9,2.2,2.3,4.3,4,6
	c1.8,1.7,3.9,3.1,6.2,4.3c2.3,1.2,4.7,2.2,7.1,2.9c1.8,0.6,3.8,1.1,6.1,1.7l0.3-4.8l16.6,11l-17.8,8.9l0.4-5.8
	c-2.4-0.1-4.8-0.4-7.2-1c-2.3-0.5-4.6-1.2-6.8-2.1c-1.5-0.7-3.5-1.7-5.8-3L5.5,68.9c0.1,0.1,1,0.6,2.7,1.6c1.7,1,3.4,2,5.2,2.8
	c2.7,1.1,5.6,2,8.5,2.5c1.9,0.4,3.8,0.7,5.8,0.9h12.1c2.8-0.3,5.5-0.9,8.2-1.8c4.2-1.4,7.9-3.9,10.8-7.2c3-3.5,4.5-7.9,4.4-12.4
	c0-2.3-0.4-4.5-1.2-6.7c-0.7-1.9-1.6-3.6-2.7-5.2c-1.2-1.6-2.7-3-4.4-4c-1.6-1.1-3.3-2.1-5-3c-1.8-0.9-3.7-1.6-5.6-2.2
	c-2.3-0.7-4-1.2-5.3-1.5c-0.8-0.2-1.9-0.5-3.1-0.7l-0.2,5.6l-17-10.5l17.5-9.5l-0.2,6.6c3,0.2,5.9,0.7,8.8,1.4
	c3.1,0.7,6.1,1.8,8.8,3.5l6.7-15.4c-8-4.7-17.1-7.1-26.4-6.9C26.6,6.7,20.3,8.5,15.1,12"/>
</svg>